<?xml version="1.0" encoding="utf-8"?>
<!-- Generator: Adobe Illustrator 23.0.0, SVG Export Plug-In . SVG Version: 6.00 Build 0)  -->
<svg version="1.1" id="Слой_1" xmlns="http://www.w3.org/2000/svg" xmlns:xlink="http://www.w3.org/1999/xlink" x="0px" y="0px"
	 viewBox="0 0 728 152" style="enable-background:new 0 0 728 152;" xml:space="preserve">
<style type="text/css">
	.st0{fill:#99ABB1;}
</style>
<g>
	<g>
		<path class="st0" d="M28.5,97.2v-3.9c-2,1.9-3,2.6-4.7,3.3c-1.8,0.7-3.8,1.1-6.4,1.1C7.7,97.6,2,92.4,2,83.5
			c0-8.2,5.9-13.2,15.5-13.2h10.7V68c0-5-2.5-7.1-8.6-7.1c-4,0-5.8,0.8-8.5,3.7l-7.2-7C6.4,55,7.7,54,9.9,53c2.6-1.1,5.8-1.7,10-1.7
			c13.1,0,19.6,5.4,19.6,16v29.8H28.5z M19.2,78c-4,0-6.4,1.8-6.4,5.1c0,3.5,2.4,5.2,7.1,5.2c5.8,0,8.2-2.3,8.2-7.9V78H19.2z"/>
		<path class="st0" d="M77.8,97.2V61.9H66.9v10.9c0,19.4-5.3,24.5-14.5,24.5h-5.4v-10h1.4c3.8,0,7.6-0.7,7.6-17V51.8h33.2v45.4H77.8
			z"/>
		<path class="st0" d="M122.7,97.2h-21.9V51.8h11.4v16.4h10.4c9,0,15.1,5.9,15.1,14.4C137.7,91.2,131.6,97.2,122.7,97.2 M111.9,77.1
			v11.2h8.7c3.7,0,5.9-2.2,5.9-5.7c0-3.4-2.3-5.6-5.9-5.6L111.9,77.1L111.9,77.1z"/>
		<polygon class="st0" points="172.1,97.2 172.1,61.9 157.6,61.9 157.6,97.2 146.2,97.2 146.2,51.8 183.6,51.8 183.6,97.2 		"/>
		<polygon class="st0" points="222.6,97.2 222.6,69.5 206.6,97.2 195.3,97.2 195.3,51.8 206.6,51.8 206.6,78.8 222.6,51.8 234,51.8 
			234,97.2 		"/>
		<polygon class="st0" points="271.6,97.2 271.6,79 257.1,79 257.1,97.2 245.7,97.2 245.7,51.8 257.1,51.8 257.1,69 271.6,69 
			271.6,51.8 283,51.8 283,97.2 		"/>
		<path class="st0" d="M318.2,97.2v-3.9c-2,1.9-3,2.6-4.7,3.3c-1.7,0.7-3.8,1.1-6.4,1.1c-9.6,0-15.3-5.2-15.3-14.1
			c0-8.2,5.9-13.2,15.5-13.2H318V68c0-5-2.5-7.1-8.6-7.1c-4,0-5.8,0.8-8.5,3.7l-7.2-7c2.6-2.6,3.8-3.6,6.1-4.6
			c2.6-1.1,5.8-1.7,10-1.7c13.1,0,19.6,5.4,19.6,16v29.8H318.2z M309,78c-4,0-6.4,1.8-6.4,5.1c0,3.5,2.4,5.2,7.1,5.2
			c5.8,0,8.2-2.3,8.2-7.9V78H309z"/>
	</g>
	<g>
		<g>
			<path class="st0" d="M499.4,51.9h12.6v18.5l15.6-18.5h14.9l-17.2,19.6l17.8,25.9H528l-11.5-16.9l-4.6,5.1v11.7h-12.6L499.4,51.9
				L499.4,51.9z"/>
			<path class="st0" d="M546.8,51.9h12.5V69h16.2V51.9h12.7v45.5h-12.7V80.1h-16.2v17.3h-12.5V51.9z"/>
			<path class="st0" d="M596.2,51.9h12.5v25.6l17.6-25.6H638v45.5h-12.5V71.8L608,97.4h-11.8L596.2,51.9L596.2,51.9z"/>
			<path class="st0" d="M646.1,51.9h32.7V63h-20.1v34.4h-12.6V51.9z"/>
			<path class="st0" d="M684.2,51.9h12.5v25.6l17.6-25.6H726v45.5h-12.5V71.8l-17.6,25.6h-11.7V51.9z"/>
		</g>
		<path class="st0" d="M422.9,91.3l-14.3-22c-12.1,17.8-29.4,24-35.9,14.1c-6.5-10,2.7-27.8,20.5-39.7c17.8-11.9,38.1-16.4,48.9-5.7
			C453.1,48.8,440.6,79.5,422.9,91.3 M462.9,26.3c-16-14.3-50.3-8.4-76.9,9.4c-26.6,17.8-37.3,42.8-30.7,59.4
			c9.3,23.5,34.4,24.4,61,6.7l22,31.9C461.6,111.6,496,55.8,462.9,26.3"/>
	</g>
</g>
</svg>
